<svg xmlns="http://www.w3.org/2000/svg" xmlns:xlink="http://www.w3.org/1999/xlink" width="400" zoomAndPan="magnify" viewBox="0 0 300 299.999988" height="400" preserveAspectRatio="xMidYMid meet" version="1.0"><defs><clipPath id="ee0b5488fd"><path d="M 57 70 L 243 70 L 243 243.378906 L 57 243.378906 Z M 57 70 " clip-rule="nonzero"/></clipPath><clipPath id="449f9046cf"><path d="M 149 15.378906 L 196 15.378906 L 196 69 L 149 69 Z M 149 15.378906 " clip-rule="nonzero"/></clipPath></defs><g clip-path="url(#ee0b5488fd)"><path fill="#ffffff" d="M 212.394531 136.425781 C 212.125 107.597656 235.929688 93.753906 237 93.082031 C 223.613281 73.503906 202.78125 70.824219 195.355469 70.5 C 177.617188 68.707031 160.746094 80.945312 151.757812 80.945312 C 142.769531 80.945312 128.878906 70.769531 114.179688 71.050781 C 94.839844 71.332031 77.027344 82.289062 67.054688 99.589844 C 46.980469 134.445312 61.925781 186.066406 81.492188 214.335938 C 91.058594 228.15625 102.457031 243.710938 117.441406 243.148438 C 131.867188 242.589844 137.320312 233.832031 154.746094 233.832031 C 172.171875 233.832031 177.085938 243.148438 192.332031 242.863281 C 207.859375 242.59375 217.6875 228.773438 227.183594 214.902344 C 238.167969 198.847656 242.6875 183.308594 242.957031 182.507812 C 242.621094 182.351562 212.699219 170.890625 212.390625 136.433594 " fill-opacity="1" fill-rule="nonzero"/></g><g clip-path="url(#449f9046cf)"><path fill="#ffffff" d="M 183.738281 51.800781 C 191.691406 42.167969 197.042969 28.78125 195.578125 15.4375 C 184.128906 15.902344 170.257812 23.070312 162.03125 32.691406 C 154.664062 41.21875 148.214844 54.84375 149.960938 67.917969 C 162.726562 68.90625 175.78125 61.421875 183.738281 51.796875 " fill-opacity="1" fill-rule="nonzero"/></g></svg>